<svg width="12" height="12" viewBox="0 0 12 12" fill="none" xmlns="http://www.w3.org/2000/svg">
<rect width="10" height="10" fill="white"/>
<mask id="path-2-inside-1_29_130" fill="white">
<path fill-rule="evenodd" clip-rule="evenodd" d="M3 10C6.86599 10 10 6.86599 10 3C10 2.66048 9.97583 2.3266 9.92911 2H48V36H2V9.92911C2.3266 9.97583 2.66048 10 3 10Z"/>
</mask>
<path fill-rule="evenodd" clip-rule="evenodd" d="M3 10C6.86599 10 10 6.86599 10 3C10 2.66048 9.97583 2.3266 9.92911 2H48V36H2V9.92911C2.3266 9.97583 2.66048 10 3 10Z" fill="white"/>
<path d="M9.92911 2V0H7.62268L7.94926 2.28319L9.92911 2ZM48 2H50V0H48V2ZM48 36V38H50V36H48ZM2 36H0V38H2V36ZM2 9.92911L2.28319 7.94926L0 7.62268V9.92911H2ZM8 3C8 5.76142 5.76142 8 3 8V12C7.97056 12 12 7.97056 12 3H8ZM7.94926 2.28319C7.9826 2.51629 8 2.75553 8 3H12C12 2.56543 11.9691 2.13692 11.909 1.71681L7.94926 2.28319ZM9.92911 4H48V0H9.92911V4ZM46 2V36H50V2H46ZM48 34H2V38H48V34ZM4 36V9.92911H0V36H4ZM3 8C2.75553 8 2.51629 7.9826 2.28319 7.94926L1.71681 11.909C2.13692 11.9691 2.56543 12 3 12V8Z" fill="#A9A9AC" mask="url(#path-2-inside-1_29_130)"/>
<circle cx="4" cy="4" r="4" fill="#A9A9AC"/>
</svg>
