<svg width="12" height="12" viewBox="0 0 12 12" fill="none" xmlns="http://www.w3.org/2000/svg">
<rect width="10" height="10" fill="white"/>
<mask id="path-2-inside-1_29_130" fill="white">
<path fill-rule="evenodd" clip-rule="evenodd" d="M2 6.97758V36H48V2H6.97758C6.7398 4.63857 4.63857 6.7398 2 6.97758Z"/>
</mask>
<path fill-rule="evenodd" clip-rule="evenodd" d="M2 6.97758V36H48V2H6.97758C6.7398 4.63857 4.63857 6.7398 2 6.97758Z" fill="white"/>
<path d="M2 36H0V38H2V36ZM2 6.97758L1.8205 4.98565L0 5.1497V6.97758H2ZM48 36V38H50V36H48ZM48 2H50V0H48V2ZM6.97758 2V0H5.1497L4.98565 1.8205L6.97758 2ZM4 36V6.97758H0V36H4ZM48 34H2V38H48V34ZM46 2V36H50V2H46ZM6.97758 4H48V0H6.97758V4ZM4.98565 1.8205C4.83463 3.49631 3.49631 4.83463 1.8205 4.98565L2.1795 8.96951C5.78082 8.64497 8.64497 5.78082 8.96951 2.1795L4.98565 1.8205Z" fill="#A9A9AC" mask="url(#path-2-inside-1_29_130)"/>
</svg>
